<svg id="Layer_1" data-name="Layer 1" xmlns="http://www.w3.org/2000/svg" viewBox="0 0 1017.88 324.02"><defs><style>.cls-1,.cls-4{font-size:103.5px;}.cls-1,.cls-2,.cls-4,.cls-6{fill:#9f7d36;}.cls-1,.cls-2,.cls-4{font-family:Arial;font-weight:700;}.cls-1{letter-spacing:7px;}.cls-2{font-size:59.14px;letter-spacing:44px;}.cls-3{letter-spacing:42px;}.cls-4{letter-spacing:1px;}.cls-5{letter-spacing:-13px;}</style></defs><title>Logo</title><text class="cls-1" transform="translate(446.96 110.53)">HIDALGO</text><text class="cls-2" transform="translate(449.91 282.42)">JOYERÍ<tspan class="cls-3" x="483.09" y="0">A</tspan></text><text class="cls-4" transform="translate(454.35 209.97)">VÁ<tspan class="cls-5" x="145.85" y="0">	</tspan><tspan x="160.73" y="0">ZQUEZ</tspan></text><path class="cls-6" d="M424.63,241H179.93l-69.86,78.65L302.28,565,494.5,319.53ZM136.86,323.33L188.06,265H416.5l51.2,58.33L302.28,530Z" transform="translate(-110.06 -241)"/><polygon class="cls-6" points="260.13 45 234.29 45 268.67 88 115.77 88 150.15 45 124.31 45 81.69 99 124.31 153 150.15 153 114.4 107 270.04 107 234.29 153 260.13 153 302.75 99 260.13 45"/><polygon class="cls-6" points="192.36 255.43 250.04 178 223.04 178 192.22 219.77 161.4 178 134.39 178 192.08 255.43 192.1 256.13 192.22 256.15 192.34 256.05 192.36 255.43"/></svg>