<svg id="Layer_1" data-name="Layer 1" xmlns="http://www.w3.org/2000/svg" viewBox="0 0 701.88 222.71"><defs><style>.cls-1,.cls-4{font-size:71.37px;}.cls-1,.cls-2,.cls-4,.cls-6{fill:#5d5d5d;}.cls-1,.cls-2,.cls-4{font-family:Arial;font-weight:700;}.cls-1{letter-spacing:4px;}.cls-2{font-size:40.78px;letter-spacing:30px;}.cls-3{letter-spacing:29px;}.cls-5{letter-spacing:-9px;}</style></defs><title>LogoBN</title><text class="cls-1" transform="translate(308.2 75.26)">HIDALGO</text><text class="cls-2" transform="translate(310.24 193.79)">JOYERÍ<tspan class="cls-3" x="333.11" y="0">A</tspan></text><text class="cls-4" transform="translate(313.3 143.83)">VÁ<tspan class="cls-5" x="100.57" y="0">	</tspan><tspan x="110.83" y="0">ZQUEZ</tspan></text><path class="cls-6" d="M485,206H316.24l-48.17,53.75,132.54,169L533.15,259.79ZM286.54,261.52L321.84,221H479.37l35.3,40.52L400.61,404Z" transform="translate(-268.06 -206)"/><polygon class="cls-6" points="179.37 30 161.56 30 185.26 59 79.83 59 103.53 30 85.72 30 56.33 67 85.72 104 103.53 104 78.88 73 186.21 73 161.56 104 179.37 104 208.76 67 179.37 30"/><polygon class="cls-6" points="132.64 175.78 172.42 123 153.8 123 132.54 151.8 111.29 123 92.67 123 132.45 175.78 132.46 175.97 132.54 175.83 132.63 175.98 132.64 175.78"/></svg>